<svg width="56" height="56" viewBox="0 0 56 56" fill="none" xmlns="http://www.w3.org/2000/svg">
<path d="M55.167 11.5196C53.2187 12.383 51.1257 12.9663 48.9253 13.23C51.1957 11.8715 52.8942 9.7334 53.704 7.21464C51.571 8.48162 49.2365 9.37343 46.802 9.85131C45.1649 8.10333 42.9965 6.94474 40.6334 6.55542C38.2704 6.16609 35.8449 6.56782 33.7336 7.69823C31.6222 8.82864 29.9432 10.6245 28.957 12.807C27.9709 14.9894 27.7329 17.4364 28.28 19.768C23.9579 19.551 19.7298 18.4276 15.87 16.4708C12.0102 14.5139 8.60497 11.7674 5.87534 8.40931C4.94201 10.0193 4.40534 11.886 4.40534 13.874C4.4043 15.6636 4.84502 17.4259 5.68839 19.0044C6.53176 20.5828 7.75172 21.9287 9.24001 22.9226C7.51399 22.8677 5.82604 22.4013 4.31667 21.5623V21.7023C4.3165 24.2124 5.18475 26.6452 6.7741 28.588C8.36345 30.5307 10.576 31.8638 13.0363 32.361C11.4352 32.7943 9.75646 32.8581 8.12701 32.5476C8.82117 34.7074 10.1733 36.596 11.9942 37.9491C13.8151 39.3022 16.0135 40.0521 18.2817 40.0936C14.4313 43.1163 9.67608 44.7559 4.78101 44.7486C3.9139 44.7489 3.04752 44.6982 2.18634 44.597C7.15512 47.7917 12.9391 49.4872 18.8463 49.4806C38.843 49.4806 49.7747 32.9186 49.7747 18.5546C49.7747 18.088 49.763 17.6166 49.742 17.15C51.8684 15.6122 53.7038 13.7081 55.1623 11.5266L55.167 11.5196Z" fill="#D1D5DB"/>
<circle cx="40.8333" cy="14" r="3.5" fill="#4B5563"/>
</svg>
