<svg width="56" height="56" viewBox="0 0 56 56" fill="none" xmlns="http://www.w3.org/2000/svg">
<path d="M34.5469 15.8156H45.457V18.4625H34.5469V15.8156ZM23.6148 26.2883C26.0266 25.1344 27.2898 23.3789 27.2898 20.6664C27.2898 15.3016 23.2977 14 18.6875 14H6V40.9281H19.043C23.932 40.9281 28.5203 38.5766 28.5203 33.1078C28.5203 29.7281 26.9234 27.2289 23.6148 26.2883ZM11.9172 18.5937H17.468C19.6063 18.5937 21.5258 19.1898 21.5258 21.6727C21.5258 23.9586 20.0328 24.8773 17.9164 24.8773H11.9172V18.5937ZM18.2336 36.3562H11.9117V28.9406H18.3594C20.9625 28.9406 22.6086 30.0289 22.6086 32.7852C22.6086 35.4977 20.6453 36.3562 18.2336 36.3562ZM49.7227 31.4617C49.7227 25.6922 46.3484 20.8852 40.2453 20.8852C34.3117 20.8852 30.2758 25.3531 30.2758 31.2102C30.2758 37.2805 34.0984 41.4477 40.2453 41.4477C44.8992 41.4477 47.9125 39.3531 49.3617 34.8852H44.6422C44.1281 36.5531 42.0391 37.4281 40.4148 37.4281C37.2758 37.4281 35.6352 35.5906 35.6352 32.468H49.6844C49.7008 32.1453 49.7227 31.8062 49.7227 31.4617ZM35.6352 29.0883C35.8047 26.5234 37.5164 24.9211 40.0758 24.9211C42.7664 24.9211 44.1117 26.5016 44.3469 29.0883H35.6352Z" fill="#D1D5DB"/>
</svg>
