<svg width="53" height="56" viewBox="0 0 53 56" fill="none" xmlns="http://www.w3.org/2000/svg">
<path d="M21 0.972946C21.3416 1.38809 21.551 1.89615 21.6009 2.43147C21.6508 2.9668 21.539 3.5048 21.28 3.97595C19.2565 7.69111 18.1998 11.8555 18.207 16.0859C18.207 30.1594 29.68 41.5554 43.82 41.5554C45.6645 41.5554 47.46 41.3629 49.1855 40.9954C49.7144 40.8809 50.2654 40.9247 50.7696 41.1214C51.2738 41.3181 51.7089 41.659 52.0205 42.1014C52.3495 42.5615 52.5172 43.1174 52.4976 43.6826C52.4779 44.2479 52.2721 44.7908 51.912 45.2269C49.1669 48.599 45.7039 51.3159 41.7754 53.1796C37.847 55.0433 33.5521 56.0068 29.204 55.9999C13.069 55.9999 0 43.0009 0 26.9849C0 14.9309 7.399 4.59195 17.934 0.209946C18.4588 -0.0118424 19.0414 -0.0573635 19.5942 0.0802209C20.1471 0.217805 20.6404 0.531066 21 0.972946Z" fill="#D1D5DB"/>
</svg>
