<svg width="46" height="48" viewBox="0 0 46 48" fill="#0000" xmlns="http://www.w3.org/2000/svg">
<path d="M16.3145 44.4712V37.3365C16.3145 35.5152 17.8018 34.0387 19.6364 34.0387H26.3428C27.2238 34.0387 28.0687 34.3862 28.6917 35.0046C29.3147 35.6231 29.6647 36.4618 29.6647 37.3365V44.4712C29.6591 45.2283 29.9582 45.9564 30.4956 46.4938C31.0329 47.0311 31.7642 47.3334 32.5269 47.3334H37.1023C39.2392 47.3388 41.2905 46.5 42.8034 45.0019C44.3164 43.5038 45.1667 41.4696 45.1667 39.3483V19.0227C45.1667 17.3091 44.4015 15.6837 43.0775 14.5842L27.5128 2.24371C24.8052 0.0799975 20.926 0.149859 18.2993 2.40964L3.08974 14.5842C1.7031 15.6512 0.874329 17.2815 0.833374 19.0227V39.3275C0.833374 43.749 4.44393 47.3334 8.89778 47.3334H13.3687C14.9529 47.3334 16.2404 46.0645 16.2518 44.4919L16.3145 44.4712Z" fill="#F9FAFB"/>
</svg>
