<svg width="56" height="56" viewBox="0 0 56 56" fill="none" xmlns="http://www.w3.org/2000/svg">
<path d="M28.5177 9.14172e-05C17.3659 0.0343258 9.33337 9.07351 9.33337 19.1502C9.33337 24.0043 11.1315 28.4296 14.0977 31.8159C15.9057 33.8765 18.7287 38.1848 19.8093 41.8182C19.8127 41.8455 19.8196 41.8747 19.823 41.9037H37.3449C37.3482 41.8747 37.3551 41.8473 37.3585 41.8182C38.4386 38.1848 41.2621 33.8765 43.0701 31.8159C46.0396 28.5237 47.8334 24.1049 47.8334 19.1502C47.8334 8.59664 39.1818 -0.032393 28.5177 9.14172e-05ZM28.5834 10.4998C23.7567 10.4998 19.8334 14.4252 19.8334 19.1513C19.8334 20.2112 19.0459 20.9987 18.0834 20.9987C17.1209 20.9987 16.3334 20.2112 16.3334 19.2487C16.3334 12.4937 21.8295 7.09711 28.5834 7.09711C29.5507 7.09711 30.3334 7.88012 30.3334 8.84711C30.3334 9.81409 29.5459 10.4998 28.5834 10.4998Z" fill="#D1D5DB"/>
<path d="M21.5104 50.4594C21.1816 49.8852 21.0095 49.2133 21.0095 48.5246L21 44.2371H36.1667L36.1545 48.5246C36.1545 49.1075 35.9261 49.9751 35.6476 50.4605L34.0285 53.2692C33.5309 54.131 32.4008 54.8311 31.5061 54.8311H25.6603C24.7627 54.8311 23.6327 54.1306 23.1351 53.2692L21.5104 50.4594Z" fill="#4B5563"/>
</svg>
