<svg xmlns="http://www.w3.org/2000/svg" xmlns:xlink="http://www.w3.org/1999/xlink" viewBox="0 0 265.65 194.95"><defs><style>.cls-1,.cls-26,.cls-28,.cls-31,.cls-33,.cls-36,.cls-43,.cls-6{fill:none;}.cls-2{isolation:isolate;}.cls-3,.cls-56{fill:#1bf1f1;}.cls-3,.cls-4{opacity:0.18;}.cls-4{fill:#f107b3;}.cls-5{fill:#f1be46;}.cls-6{stroke:#ffd88c;}.cls-26,.cls-28,.cls-31,.cls-33,.cls-36,.cls-43,.cls-6{stroke-linecap:round;stroke-linejoin:round;}.cls-7{clip-path:url(#clip-path);}.cls-8{clip-path:url(#clip-path-2);}.cls-9{fill:#c38685;}.cls-10{fill:#daa09d;}.cls-11{fill:#e1a839;}.cls-12{fill:#43549a;}.cls-13{fill:#35428b;}.cls-14{fill:#e9af3d;}.cls-15{fill:#d5e4ec;}.cls-16{fill:#9b613f;}.cls-17{fill:#fdc6a2;}.cls-18{fill:#d98a77;}.cls-19{opacity:0.19;mix-blend-mode:screen;}.cls-20{clip-path:url(#clip-path-3);}.cls-21{fill:#f8b894;}.cls-22{fill:#723f28;}.cls-23{fill:#f1ae8b;}.cls-24{fill:#dae5f2;}.cls-25{fill:#c4d7e9;}.cls-26{stroke:#eec2b8;}.cls-27{fill:#eec2b8;}.cls-28{stroke:#723f28;opacity:0.52;}.cls-29{fill:#e89e85;}.cls-29,.cls-58{opacity:0.2;}.cls-30,.cls-32,.cls-41,.cls-42,.cls-45,.cls-46,.cls-47,.cls-53,.cls-54{fill:#fff;}.cls-31,.cls-33,.cls-36{stroke:#fff;}.cls-31,.cls-59{opacity:0.49;}.cls-32{opacity:0.5;}.cls-34{fill:#e99f86;}.cls-35{fill:#714630;}.cls-36{opacity:0.77;}.cls-37{fill:#ffb29c;}.cls-38,.cls-40{fill:#e48c7c;}.cls-38{opacity:0.45;}.cls-39{fill:#d27e72;}.cls-41{opacity:0.72;}.cls-42{opacity:0.42;}.cls-43{stroke:#be8116;}.cls-44{fill:#253246;}.cls-45{opacity:0.44;}.cls-46{opacity:0.67;}.cls-47{opacity:0.47;}.cls-48{fill:#f3cdc8;}.cls-49{fill:#e4b4b0;}.cls-50,.cls-51{fill:#ecc0bd;}.cls-51{opacity:0.66;}.cls-52{fill:#cd9190;}.cls-53{opacity:0.4;}.cls-54{opacity:0.34;}.cls-55{fill:#f1167d;}.cls-57{fill:#11b3d8;}.cls-58,.cls-59{fill:#fff4f9;}.cls-60{fill:#ffd88c;}</style><clipPath id="clip-path"><polygon class="cls-1" points="194.7 147.66 223.83 147.66 218.97 188.4 199.56 188.4 194.7 147.66"/></clipPath><clipPath id="clip-path-2"><rect class="cls-1" x="189.7" y="142.66" width="39.13" height="50.74"/></clipPath><clipPath id="clip-path-3"><path class="cls-1" d="M150.85,83.34c-4.93,5.07-14.79,15.49-21.54,15.49,0,0,0-.13-.05-.37v.37c-6.76,0-16.61-10.42-21.54-15.49-3.75-3.85-1.94-8.82-.65-13.3a44,44,0,0,0,1.74-9.65c.35-6.23-.31-12.33.46-18.58,1.57-12.82,17.74-12.35,20-12.22,2.27-.13,18.44-.6,20,12.22,1.2,9.78-.73,19.68,2.42,29.19C153.1,75.17,154.36,79.73,150.85,83.34Z"/></clipPath></defs><title>Asset 2</title><g class="cls-2"><g id="Layer_2" data-name="Layer 2"><g id="Layer_1-2" data-name="Layer 1"><circle class="cls-3" cx="95.55" cy="16.9" r="16.6"/><circle class="cls-3" cx="180.5" cy="114.83" r="14.48"/><circle class="cls-4" cx="47.83" cy="42.83" r="9.92"/><path class="cls-5" d="M49.22,183.36c0,1.64-.17,3.4-1.22,4.66-1.39,1.68-3.83,1.88-6,2l-19.11.7a46.61,46.61,0,0,1-10.23-.39,15.5,15.5,0,0,1-8.91-4.68,15.1,15.1,0,0,1-3-6A19.94,19.94,0,0,1,.28,171c1.72-9.77,11.85-16.77,21.6-14.39,4.2,1,7.73,3.55,11.55,5.45,4.1,2,8.38.66,12.23,2.45l1.83.85A75.74,75.74,0,0,1,49.22,183.36Z"/><path class="cls-6" d="M1.57,167.93c3.22-7.85,12-13,20.58-10.86"/><g class="cls-7"><g class="cls-8"><image width="82" height="107" transform="translate(189.55 142.46) scale(0.48)" xlink:href="data:image/png;base64"/></g></g><path class="cls-9" d="M221,144.56H217.7l.08-5.88a3.18,3.18,0,0,1,3.17-3.13h0Z"/><path class="cls-10" d="M196.59,139.59h25.36a1.5,1.5,0,0,1,1.5,1.5v3.29a0,0,0,0,1,0,0H195.09a0,0,0,0,1,0,0v-3.29A1.5,1.5,0,0,1,196.59,139.59Z"/><path class="cls-5" d="M52.4,152.92c-.56-.38-10.14-6.2-19-5.82,0,0,5.63,11.45,4.88,19.61"/><path class="cls-11" d="M47,158.12l-1.86,1.82-6.86,6.73c.52-5.68-2.05-13-3.66-16.85-.62-1.52-1.11-2.52-1.21-2.72C36.66,147.56,43.52,149.56,47,158.12Z"/><path class="cls-12" d="M171,136.66s0,0,0,0a4.61,4.61,0,0,1-1,.35l-.19.05c-6.75,1.65-35.06,3.22-40.44,3.24h-.16c-4.25,0-22.83-1-33.76-2.23L94.35,138c-1.49-.18-2.81-.36-3.89-.55-.61-.1-1.15-.21-1.59-.31l-.28-.08h0c-1-.27-1.47-.53-1.15-.8h0a1.17,1.17,0,0,1,.28-.15,9.2,9.2,0,0,0,2.07-1.17l0,0a9.16,9.16,0,0,0,1.27-1.12.38.38,0,0,0,.09-.09,10.06,10.06,0,0,0,.8-.95.38.38,0,0,0,.09-.13h0a20.3,20.3,0,0,0,3-7.17c.57-2.21,1-4.48,1.81-6.62A15.89,15.89,0,0,1,99,114.63a10.41,10.41,0,0,1,.91-1.1q.27-.28.57-.57a20.79,20.79,0,0,1,4.62-3.24c.61-.32,1.23-.62,1.86-.89a41,41,0,0,1,10.14-2.76c1-.14,1.91-.27,2.87-.39,3-.36,6.13-.58,9.24-.64h.16a93,93,0,0,1,12.11,1,37.68,37.68,0,0,1,12,3.68h0c.41.22.81.45,1.21.69a16.32,16.32,0,0,1,1.73,1.16,18,18,0,0,1,1.66,1.37,14.78,14.78,0,0,1,3.86,6.51c.58,1.76,1,3.61,1.45,5.42a21.36,21.36,0,0,0,3.11,7.71,9.9,9.9,0,0,0,.89,1.07,10.25,10.25,0,0,0,1.38,1.23,10.84,10.84,0,0,0,1,.64,8.51,8.51,0,0,0,1.05.51l.18.08C171.34,136.31,171.32,136.49,171,136.66Z"/><path class="cls-13" d="M169.94,137a105.71,105.71,0,0,1-13.32,1.69c2.32-12-.67-22.76-3.13-29a21.36,21.36,0,0,1,4.55,3.2c6.41,6,3.73,16.75,10.69,21.94a9.2,9.2,0,0,0,2.07,1.17C171.57,136.37,171.18,136.69,169.94,137Z"/><path class="cls-13" d="M88.67,136.91A105.71,105.71,0,0,0,102,138.6c-2.32-12,.67-22.76,3.13-29a21.36,21.36,0,0,0-4.55,3.2c-6.41,6-3.73,16.75-10.69,21.94A9.2,9.2,0,0,1,87.81,136C87,136.27,87.43,136.59,88.67,136.91Z"/><circle class="cls-13" cx="103.97" cy="127.72" r="1.41"/><circle class="cls-13" cx="104.65" cy="125.02" r="0.63"/><circle class="cls-13" cx="106.69" cy="127.48" r="0.56"/><circle class="cls-13" cx="107.33" cy="124.97" r="1.01"/><circle class="cls-13" cx="106.31" cy="130.3" r="0.99"/><path class="cls-5" d="M72.86,165.3,58.6,155a20.76,20.76,0,0,1,4.77-5.16,27.1,27.1,0,0,1,7.84-4.31,30.66,30.66,0,0,1,4.66-1.23S72.11,159.67,72.86,165.3Z"/><path class="cls-11" d="M75.86,144.28s-8,5-8.4,11L71.82,165l.7-.28S75.3,146,75.86,144.28Z"/><path class="cls-14" d="M24.81,189.14a8.75,8.75,0,0,1,8.31-8.74L64,178.82a10.32,10.32,0,0,1,10.32,10.32H24.81Z"/><path class="cls-15" d="M87.39,136.17a9.32,9.32,0,0,0,2.53-1.53,13.6,13.6,0,0,1-1.44,2.55C87.07,136.85,86.57,136.51,87.39,136.17Z"/><path class="cls-15" d="M169.83,137.13a14.82,14.82,0,0,1-1.21-2.13,9.2,9.2,0,0,0,2.07,1.17C171.46,136.49,171.07,136.81,169.83,137.13Z"/><path class="cls-16" d="M109.27,54.2c-12.11-12.39-8.45-30.41-8.45-30.41l7.32,3.8S102.51,13,113.63,4.08c0,0-2.25,6.62,2.82,10.14,0,0,2-12.53,13.23-14.22,0,0-1.41,7.88,1.83,10.56,0,0,14.64-13.8,42.8-4.08,0,0-4.79,6.19-9.15,9.15a53,53,0,0,1,15.34,2c-11.47,2.47-23.56,8.47-29.1,19.22a32.59,32.59,0,0,0-3.7,10.9"/><path class="cls-17" d="M135.66,104.71a2.16,2.16,0,0,1-.46,2,8.26,8.26,0,0,1-5.66,2.87h-.07a8.24,8.24,0,0,1-5.66-2.87,2.16,2.16,0,0,1-.46-2c1.34-5.32.84-16.42.84-16.42l5.28-1.78h.07l5.28,1.78S134.32,99.39,135.66,104.71Z"/><path class="cls-16" d="M156,23.65c0,1.57,3.8,18.58-6.9,26.75V23.65S156,23.51,156,23.65Z"/><circle class="cls-17" cx="109.01" cy="56.58" r="7.53"/><circle class="cls-17" cx="149.2" cy="56.37" r="7.53"/><circle class="cls-18" cx="108.67" cy="56.93" r="3.48"/><circle class="cls-18" cx="150.44" cy="56.34" r="3.56"/><path class="cls-17" d="M150.85,83.34c-4.93,5.07-14.79,15.49-21.54,15.49,0,0,0-.13-.05-.37v.37c-6.76,0-16.61-10.42-21.54-15.49-3.75-3.85-1.94-8.82-.65-13.3a44,44,0,0,0,1.74-9.65c.35-6.23-.31-12.33.46-18.58,1.57-12.82,17.74-12.35,20-12.22,2.27-.13,18.44-.6,20,12.22,1.2,9.78-.73,19.68,2.42,29.19C153.1,75.17,154.36,79.73,150.85,83.34Z"/><g id="Texture_Group" data-name="Texture Group" class="cls-19"><g class="cls-20"><image id="Noise" width="270" height="388" transform="translate(104.45 28.48) scale(0.18)" xlink:href="data:image/png;base64"/></g></g><path class="cls-21" d="M148.88,39.7c-5.15-7.18-17.55-6.84-19.59-6.73-2-.11-14.44-.45-19.6,6.71,3-10.64,17.45-10.21,19.6-10.09C131.43,29.47,145.89,29,148.88,39.7Z"/><path class="cls-22" d="M149.77,45.88s0,1,0,1a28.12,28.12,0,0,0-.44-5.08c-1.57-12.82-17.74-12.35-20-12.22-2.28-.13-18.45-.6-20,12.22A56.52,56.52,0,0,0,108.9,48a76.35,76.35,0,0,1,.37-10.34c.6-4.87,3.64-8.17,7.65-10.08a19.32,19.32,0,0,1,6-6.52,8.31,8.31,0,0,0-1.32,4.82,13.11,13.11,0,0,1,5.5-5.56l-.65,2.12a14.92,14.92,0,0,0-.69,3,48.46,48.46,0,0,1,7.43.05A25.47,25.47,0,0,1,141,27.27a12.85,12.85,0,0,1,8.26,10.42A46,46,0,0,1,149.77,45.88Z"/><path class="cls-23" d="M135,99.82c-5.2.49-8.72-.61-10.91-1.79,0-.23,0-.46,0-.7a11.57,11.57,0,0,0,5.09,1.48v-.37c0,.24.05.37.05.37a10.61,10.61,0,0,0,4.31-1.1c.41-.19.82-.39,1.23-.61,0,.27,0,.54,0,.81C134.92,98.56,135,99.2,135,99.82Z"/><path class="cls-24" d="M172.68,139.38v48.43H85.62V139.38a6.8,6.8,0,0,1,3.85-6.13,6.49,6.49,0,0,1,2.59-.67h0a2.3,2.3,0,0,1,.37,0h73.4a4.3,4.3,0,0,1,.62,0h0a6.43,6.43,0,0,1,2.45.71A6.81,6.81,0,0,1,172.68,139.38Z"/><path class="cls-25" d="M172.68,167.83v22.61H85.61V171.88C103.89,177.2,137.81,183,172.68,167.83Z"/><circle class="cls-22" cx="135.39" cy="22.41" r="1.44"/><circle class="cls-22" cx="139.19" cy="21.06" r="0.77"/><circle class="cls-22" cx="136.83" cy="19.94" r="0.77"/><path class="cls-26" d="M133.76,9.18s9.16-7.69,27.46-5.57"/><line class="cls-26" x1="165.3" y1="4.25" x2="168.75" y2="5.03"/><path class="cls-26" d="M117.15,11.76a16.35,16.35,0,0,1,7.79-10.14"/><path class="cls-26" d="M106.73,18.24A19.38,19.38,0,0,1,110,8"/><circle class="cls-27" cx="109.8" cy="10.8" r="1.38"/><circle class="cls-27" cx="110.21" cy="13.54" r="0.47"/><circle class="cls-27" cx="118.65" cy="11.01" r="0.94"/><circle class="cls-27" cx="156.85" cy="4.63" r="1.31"/><circle class="cls-27" cx="135.73" cy="8.76" r="0.75"/><circle class="cls-27" cx="166.8" cy="6.6" r="1.03"/><circle class="cls-27" cx="135.12" cy="11.15" r="0.61"/><circle class="cls-27" cx="139.16" cy="9.46" r="1.27"/><path class="cls-28" d="M140.83,25.24a12.88,12.88,0,0,1,8.25,6.45"/><path class="cls-29" d="M153.11,78.46a7.74,7.74,0,0,1-2.24,4.9c-4.93,5.07-14.79,15.49-21.54,15.49,0,0,0-.13-.05-.37v.37c-6.76,0-16.61-10.42-21.54-15.49a7.58,7.58,0,0,1-2.21-4.9,34,34,0,0,0,47.58,0Z"/><path class="cls-30" d="M138.82,73.34A2.14,2.14,0,0,1,140.89,76a11,11,0,0,1-21.45,0,2.14,2.14,0,0,1,2.07-2.66Z"/><path class="cls-31" d="M100.82,27.72s-.75,9.94,3.19,17.92"/><circle class="cls-32" cx="103.57" cy="26.64" r="0.68"/><circle class="cls-32" cx="101.74" cy="25.72" r="0.42"/><circle class="cls-30" cx="102.69" cy="28.57" r="0.95"/><path class="cls-33" d="M122.52,6.55a13.42,13.42,0,0,1,3-2.63"/><circle class="cls-30" cx="112.22" cy="41.28" r="1.55"/><circle class="cls-30" cx="110.68" cy="45.64" r="0.56"/><circle class="cls-30" cx="112.93" cy="44.8" r="0.49"/><path class="cls-16" d="M125.55,48.79a1.36,1.36,0,0,1-1.74.85l-.13,0c-5-2-7.79.46-7.91.57a1.32,1.32,0,0,1-.93.36h-.07a1.37,1.37,0,0,1-1.3-1.44,1.34,1.34,0,0,1,.42-.92c.17-.16,4.15-3.79,10.82-1.11A1.36,1.36,0,0,1,125.55,48.79Z"/><path class="cls-16" d="M133.63,48.79a1.36,1.36,0,0,0,1.74.85l.13,0c5-2,7.79.46,7.91.57a1.32,1.32,0,0,0,.93.36h.07a1.37,1.37,0,0,0,1.3-1.44,1.35,1.35,0,0,0-.43-.92c-.16-.16-4.14-3.79-10.81-1.11A1.36,1.36,0,0,0,133.63,48.79Z"/><rect class="cls-34" x="127.55" y="59.13" width="4.06" height="11.89" rx="2.03"/><ellipse class="cls-35" cx="120.17" cy="55.28" rx="2.71" ry="3.42"/><ellipse class="cls-35" cx="138.36" cy="55.28" rx="2.71" ry="3.42"/><path class="cls-36" d="M109.3,49.48a111.7,111.7,0,0,1-.21,13.76"/><rect class="cls-37" x="0.29" y="187.96" width="265.36" height="6.99" rx="3.5"/><path class="cls-38" d="M265.65,191.46a3.5,3.5,0,0,1-3.5,3.49H3.78a3.49,3.49,0,0,1-3.49-3.49,3.44,3.44,0,0,1,.55-1.87,3.48,3.48,0,0,0,2.94,1.61H262.15a3.48,3.48,0,0,0,2.47-1,3.87,3.87,0,0,0,.48-.59A3.44,3.44,0,0,1,265.65,191.46Z"/><rect class="cls-39" x="137.03" y="192.62" width="32.12" height="2.06" rx="1.03"/><rect class="cls-39" x="171.94" y="192.62" width="6.12" height="2.06" rx="1.03"/><rect class="cls-30" x="11.49" y="187.93" width="32.12" height="2.06" rx="1.03"/><rect class="cls-30" x="46.4" y="187.93" width="6.12" height="2.06" rx="1.03"/><rect class="cls-39" x="220.85" y="192.62" width="32.12" height="2.06" rx="1.03"/><rect class="cls-39" x="255.77" y="192.62" width="6.12" height="2.06" rx="1.03"/><circle class="cls-25" cx="154.74" cy="171.26" r="1.55"/><circle class="cls-25" cx="146.86" cy="171.26" r="2.58"/><circle class="cls-25" cx="152.11" cy="167.42" r="0.8"/><circle class="cls-25" cx="151.97" cy="174.78" r="1.92"/><circle class="cls-25" cx="158.35" cy="170" r="0.94"/><circle class="cls-25" cx="159.71" cy="165.16" r="2.21"/><path class="cls-30" d="M111,134.56H93.35v-2H113A2,2,0,0,1,111,134.56Z"/><path class="cls-30" d="M118.88,134.56h-1.6a2,2,0,0,1-2-2h5.6A2,2,0,0,1,118.88,134.56Z"/><circle class="cls-40" cx="83.36" cy="191.42" r="1.48"/><circle class="cls-40" cx="87.62" cy="189.69" r="0.53"/><circle class="cls-40" cx="76.92" cy="191.24" r="1.44"/><circle class="cls-40" cx="79.63" cy="189.66" r="0.42"/><circle class="cls-40" cx="80.62" cy="191.91" r="0.63"/><circle class="cls-40" cx="87.09" cy="192.69" r="0.77"/><circle class="cls-40" cx="85.3" cy="189.48" r="0.46"/><ellipse class="cls-5" cx="55.68" cy="167.44" rx="17.36" ry="16.59"/><path class="cls-11" d="M73.05,167.63c0,9.16-7.78,16.59-17.37,16.59s-17.36-7.43-17.36-16.59c0-.38,0-.75,0-1.12C39,175.14,46.49,182,55.68,182S72.4,175.14,73,166.51C73,166.88,73.05,167.25,73.05,167.63Z"/><circle class="cls-30" cx="93.36" cy="134.9" r="2.36"/><circle class="cls-41" cx="94.84" cy="138.49" r="0.72"/><circle class="cls-42" cx="93.5" cy="141.25" r="1.17"/><circle class="cls-30" cx="89.7" cy="137.08" r="0.83"/><circle class="cls-30" cx="92.09" cy="138.56" r="0.39"/><line class="cls-43" x1="44.51" y1="169.34" x2="32.49" y2="166.52"/><line class="cls-43" x1="44.51" y1="173.47" x2="31.49" y2="177.29"/><line class="cls-43" x1="44.51" y1="171.41" x2="36.37" y2="171.41"/><line class="cls-43" x1="65.7" y1="169.34" x2="77.72" y2="166.52"/><line class="cls-43" x1="65.7" y1="173.47" x2="78.72" y2="177.29"/><line class="cls-43" x1="65.7" y1="171.41" x2="73.84" y2="171.41"/><rect class="cls-30" x="45.1" y="157.42" width="9.53" height="11.6" rx="4.76"/><circle class="cls-44" cx="49.87" cy="163.45" r="1.73"/><rect class="cls-30" x="56.85" y="157.57" width="9.67" height="11.77" rx="4.83"/><path class="cls-44" d="M55.14,169a.69.69,0,0,0-.68.67.66.66,0,0,0,.17.45,1.41,1.41,0,0,0,2.48,0,.68.68,0,0,0-.07-.95.74.74,0,0,0-.42-.17Z"/><path class="cls-45" d="M54.59,150.82c-8,.19-13,6.86-13.25,7.15l-.3.4.8.6.3-.41c0-.06,5-6.56,12.47-6.74C54.61,151.82,54.56,150.82,54.59,150.82Z"/><circle class="cls-30" cx="52.98" cy="152.56" r="0.96"/><circle class="cls-46" cx="52.63" cy="154.18" r="0.33"/><circle class="cls-47" cx="52.98" cy="155.52" r="0.49"/><circle class="cls-46" cx="54.79" cy="153.81" r="0.47"/><circle class="cls-30" cx="54.93" cy="151.84" r="0.52"/><path class="cls-48" d="M224.33,144.69l-.29,1.75H194.49l-.29-1.75a.91.91,0,0,1,.89-1.06h28.35A.9.9,0,0,1,224.33,144.69Z"/><rect class="cls-49" x="192.23" y="141.66" width="34.07" height="4.78"/><polygon class="cls-50" points="224.04 146.44 223.83 147.66 194.7 147.66 194.49 146.44 224.04 146.44"/><circle class="cls-50" cx="197.07" cy="147.99" r="0.89"/><circle class="cls-51" cx="199.88" cy="150.43" r="0.42"/><circle class="cls-50" cx="198.57" cy="148.65" r="0.33"/><circle class="cls-51" cx="197.72" cy="150.52" r="0.52"/><circle class="cls-50" cx="199.23" cy="152.96" r="0.33"/><circle class="cls-50" cx="200.82" cy="151.65" r="0.23"/><rect class="cls-52" x="195.08" y="141.14" width="28.35" height="0.52"/><circle class="cls-52" cx="197.82" cy="141.04" r="0.52"/><circle class="cls-52" cx="199.65" cy="140.43" r="0.38"/><circle class="cls-52" cx="198.49" cy="140.25" r="0.28"/><path class="cls-49" d="M196.83,140.06h0Z"/><rect class="cls-53" x="194.51" y="141.65" width="10.91" height="0.89"/><circle class="cls-44" cx="61.83" cy="163.45" r="1.73"/><path class="cls-54" d="M67.05,148.12a26.64,26.64,0,0,1,4.81-2.2l-.65-.41a27.1,27.1,0,0,0-7.84,4.31l.59.57s.15-.16.47-.44a1.16,1.16,0,0,0-.07.37,1,1,0,1,0,1-.95.58.58,0,0,0-.19,0c.36-.28.82-.6,1.37-.95a.33.33,0,0,0,.33.27.34.34,0,0,0,.35-.35A.36.36,0,0,0,67.05,148.12Z"/><circle class="cls-30" cx="67.1" cy="149.79" r="0.32"/><circle class="cls-55" cx="88.46" cy="63.24" r="3.03"/><circle class="cls-55" cx="166.8" cy="39.73" r="3.03"/><circle class="cls-56" cx="40.44" cy="111.87" r="7.6"/><circle class="cls-57" cx="90.53" cy="94.83" r="5.22"/><circle class="cls-13" cx="189.76" cy="56.93" r="5.22"/><circle class="cls-56" cx="65.57" cy="92.67" r="2.16"/><circle class="cls-56" cx="236.91" cy="138.17" r="2.16"/><circle class="cls-55" cx="226.02" cy="110.54" r="3.03"/><circle class="cls-13" cx="248.96" cy="116.63" r="5.22"/><path class="cls-58" d="M119.59,107.55l-.12,0a1.17,1.17,0,0,1,.22.67,1.29,1.29,0,1,1-2.51-.34,48.94,48.94,0,0,0-9.09,2.48,1,1,0,0,1-.35.06,1,1,0,0,1-.79-1.61,41,41,0,0,1,10.14-2.76c1-.14,1.91-.27,2.87-.39a1,1,0,0,1,.51.76A1,1,0,0,1,119.59,107.55Z"/><circle class="cls-59" cx="115.18" cy="112.53" r="0.66"/><circle class="cls-59" cx="118.47" cy="114.27" r="0.56"/><circle class="cls-59" cx="120.06" cy="112.2" r="1.08"/><circle class="cls-59" cx="117.43" cy="111.36" r="0.66"/><circle class="cls-59" cx="122.38" cy="109.78" r="0.87"/><circle class="cls-60" cx="9.36" cy="161.84" r="2.26"/><circle class="cls-60" cx="13" cy="158.75" r="0.97"/><circle class="cls-60" cx="13.17" cy="162.88" r="0.81"/><circle class="cls-60" cx="17.68" cy="157.48" r="0.73"/><circle class="cls-60" cx="15.83" cy="159.87" r="0.88"/><circle class="cls-60" cx="18.61" cy="159.62" r="1.05"/><circle class="cls-30" cx="128.74" cy="161.61" r="10.9"/></g></g></g></svg>