<svg width="48" height="49" viewBox="0 0 48 49" fill="none" xmlns="http://www.w3.org/2000/svg">
<path d="M33.8777 34.4211L32.8912 33.4277L32.8886 33.4303L33.8777 34.4211ZM24 38.5L24.0018 37.1H24V38.5ZM9.99997 24.5H11.4L11.4 24.4981L9.99997 24.5ZM13.85 14.8575L14.8637 15.8231L14.8662 15.8205L13.85 14.8575ZM24 10.5L23.9982 11.9L24.0018 11.9L24 10.5ZM33.8777 14.5789L32.8895 15.5706L32.8912 15.5723L33.8777 14.5789ZM25.2789 25.944L24.7161 24.6621L24.716 24.6621L25.2789 25.944ZM12.9814 33.5665C12.5195 34.1865 12.6477 35.0636 13.2678 35.5255C13.8879 35.9874 14.765 35.8592 15.2269 35.2391L12.9814 33.5665ZM19.6995 10.4892C19.1313 9.96482 18.2456 10.0003 17.7212 10.5684C17.1968 11.1366 17.2322 12.0223 17.8004 12.5468L19.6995 10.4892ZM27.5 23.8002L28.8222 23.3402L28.8222 23.3402L27.5 23.8002ZM28.9767 37.2946C29.1479 38.0486 29.8979 38.5211 30.6519 38.3499C31.4059 38.1788 31.8784 37.4288 31.7072 36.6748L28.9767 37.2946ZM10.1922 21.3526C9.4204 21.306 8.75698 21.8939 8.7104 22.6657C8.66383 23.4375 9.25173 24.101 10.0235 24.1475L10.1922 21.3526ZM34.7935 15.6613C35.3843 15.1624 35.4588 14.2792 34.96 13.6884C34.4612 13.0976 33.5779 13.0231 32.9871 13.5219L34.7935 15.6613ZM12.3439 29.2945C12.0486 28.5799 11.23 28.2399 10.5154 28.5351C9.80076 28.8304 9.46077 29.649 9.75599 30.3636L12.3439 29.2945ZM16.6836 38.054C17.3636 38.422 18.2132 38.1691 18.5812 37.4891C18.9492 36.8091 18.6962 35.9595 18.0162 35.5915L16.6836 38.054ZM30.1611 10.3821C29.4527 10.0722 28.6272 10.3952 28.3173 11.1035C28.0074 11.8119 28.3303 12.6374 29.0387 12.9473L30.1611 10.3821ZM35.8066 28.9094C35.5357 29.6336 35.9032 30.4403 36.6274 30.7112C37.3516 30.982 38.1583 30.6145 38.4292 29.8903L35.8066 28.9094ZM36.6 24.5018C36.6021 26.1608 36.2754 27.8039 35.6388 29.3359L38.2245 30.4103C39.003 28.5366 39.4025 26.5272 39.3999 24.4982L36.6 24.5018ZM35.6388 29.3359C35.0023 30.868 34.0684 32.2587 32.8912 33.4277L34.8641 35.4145C36.3039 33.9848 37.446 32.284 38.2245 30.4103L35.6388 29.3359ZM32.8886 33.4303C31.721 34.5958 30.3352 35.5198 28.8104 36.1495L29.879 38.7375C31.7439 37.9674 33.4388 36.8373 34.8667 35.4119L32.8886 33.4303ZM28.8104 36.1495C27.2855 36.7791 25.6515 37.1021 24.0018 37.1L23.9982 39.9C26.0158 39.9026 28.0142 39.5076 29.879 38.7375L28.8104 36.1495ZM24 37.1C17.041 37.1 11.4 31.459 11.4 24.5H8.59998C8.59998 33.0054 15.4946 39.9 24 39.9V37.1ZM11.4 24.4981C11.3956 21.2685 12.6361 18.1615 14.8637 15.8231L12.8363 13.8919C10.1119 16.7519 8.59459 20.5519 8.59998 24.5019L11.4 24.4981ZM14.8662 15.8205C16.0416 14.5802 17.4577 13.5927 19.0279 12.9186L17.9234 10.3457C16.0031 11.1701 14.2712 12.3777 12.8338 13.8945L14.8662 15.8205ZM19.0279 12.9186C20.5982 12.2445 22.2894 11.8979 23.9982 11.9L24.0017 9.10001C21.9119 9.09745 19.8436 9.52133 17.9234 10.3457L19.0279 12.9186ZM24.0018 11.9C25.6515 11.8979 27.2855 12.2209 28.8104 12.8505L29.879 10.2625C28.0142 9.49243 26.0158 9.0974 23.9982 9.10001L24.0018 11.9ZM28.8104 12.8505C30.3352 13.4802 31.721 14.4042 32.8886 15.5697L34.8667 13.5881C33.4388 12.1627 31.7439 11.0326 29.879 10.2625L28.8104 12.8505ZM32.8912 15.5723C34.0684 16.7413 35.0023 18.132 35.6388 19.6641L38.2245 18.5897C37.446 16.716 36.3039 15.0152 34.8641 13.5855L32.8912 15.5723ZM35.6388 19.6641C36.2754 21.1961 36.6021 22.8392 36.6 24.4982L39.3999 24.5018C39.4025 22.4728 39.003 20.4634 38.2245 18.5897L35.6388 19.6641ZM38 23.1C36.2178 23.1 30.1126 22.293 24.7161 24.6621L25.8417 27.2259C30.5322 25.1667 35.6969 25.9 38 25.9V23.1ZM24.716 24.6621C19.0051 27.1699 14.8486 31.0596 12.9814 33.5665L15.2269 35.2391C16.8176 33.1035 20.5949 29.5299 25.8418 27.2258L24.716 24.6621ZM17.8004 12.5468C19.9533 14.5339 24.5177 19.4888 26.1777 24.2602L28.8222 23.3402C26.9262 17.8902 21.9286 12.5467 19.6995 10.4892L17.8004 12.5468ZM26.1777 24.2601C27.0307 26.7125 27.6244 29.4771 28.0575 31.8862C28.2734 33.087 28.4471 34.1861 28.5941 35.109C28.7371 36.0076 28.8625 36.7916 28.9767 37.2946L31.7072 36.6748C31.6184 36.2835 31.5093 35.6113 31.3592 34.6687C31.213 33.7505 31.035 32.6237 30.8134 31.3908C30.3715 28.9327 29.7472 25.9993 28.8222 23.3402L26.1777 24.2601ZM10.0235 24.1475C11.3861 24.2298 13.8609 24.3077 16.5792 24.119C19.2722 23.932 22.3274 23.4762 24.783 22.4276L23.6833 19.8526C21.6589 20.7171 18.9737 21.146 16.3853 21.3257C13.8221 21.5036 11.4742 21.43 10.1922 21.3526L10.0235 24.1475ZM24.783 22.4276C29.4986 20.4139 33.5287 16.7292 34.7935 15.6613L32.9871 13.5219C31.6073 14.687 27.9277 18.0401 23.6833 19.8526L24.783 22.4276ZM9.75599 30.3636C11.1125 33.6472 13.559 36.3631 16.6836 38.054L18.0162 35.5915C15.4578 34.207 13.4546 31.9832 12.3439 29.2945L9.75599 30.3636ZM29.0387 12.9473C30.4739 13.5752 31.7798 14.4649 32.8895 15.5706L34.8658 13.5872C33.51 12.2363 31.9146 11.1493 30.1611 10.3821L29.0387 12.9473ZM36.6 24.5C36.6 26.0542 36.3193 27.5387 35.8066 28.9094L38.4292 29.8903C39.0575 28.2105 39.4 26.394 39.4 24.5H36.6Z" fill="#E3E4E6" fill-opacity="0.55"/>
</svg>
