<svg width="48" height="49" viewBox="0 0 48 49" fill="none" xmlns="http://www.w3.org/2000/svg">
<path fill-rule="evenodd" clip-rule="evenodd" d="M20.4005 20.2811H25.6001V22.6121C26.3491 21.2715 28.2699 20.0669 31.1553 20.0669C36.6867 20.0669 37.9999 22.7356 37.9999 27.6319V36.7002H32.3999V28.747C32.3999 25.9587 31.6509 24.3862 29.7441 24.3862C27.0995 24.3862 26.0005 26.0809 26.0005 28.7458V36.7002H20.4005V20.2811Z" fill="#E3E4E6" fill-opacity="0.55"/>
<path fill-rule="evenodd" clip-rule="evenodd" d="M10.7979 36.486H16.3979V20.0669H10.7979V36.486Z" fill="#E3E4E6" fill-opacity="0.55"/>
<path fill-rule="evenodd" clip-rule="evenodd" d="M17.2002 14.713C17.2004 15.1354 17.1073 15.5537 16.9263 15.9435C16.7454 16.3333 16.4801 16.6868 16.146 16.9835C15.469 17.5891 14.5525 17.9281 13.598 17.926C12.6451 17.9254 11.7308 17.5873 11.0528 16.9848C10.7199 16.6871 10.4555 16.3331 10.2749 15.9433C10.0942 15.5535 10.0008 15.1354 10 14.713C10 13.86 10.378 13.0435 11.0542 12.4412C11.7316 11.8379 12.6463 11.4996 13.5994 11.5C14.5542 11.5 15.4698 11.8389 16.146 12.4412C16.8208 13.0435 17.2002 13.86 17.2002 14.713Z" fill="#E3E4E6" fill-opacity="0.55"/>
</svg>
