<svg width="96" height="28" viewBox="0 0 96 28" fill="none" xmlns="http://www.w3.org/2000/svg">
<path d="M6.60827 3.72425C10.4234 3.72425 13.5345 6.83536 13.5345 10.6732C13.5345 14.511 10.4234 17.6221 6.60827 17.6221H3.70154V8.28873H0V21.3236H6.60827C12.4899 21.3236 17.2587 16.5547 17.2587 10.6732C17.2587 4.81427 12.5353 0.0227104 6.63098 0.0227104H0V3.72425H6.60827Z" fill="url(#paint0_linear_107_101)"/>
<path d="M19.0728 12.9895C19.0728 17.5766 22.8197 21.3236 27.4296 21.3236C28.4061 21.3236 29.3372 21.1646 30.2682 20.824V16.6229C29.4734 17.236 28.5196 17.6221 27.4296 17.6221C24.7727 17.6221 22.797 15.442 22.797 12.9895C22.797 10.4688 24.7954 8.33415 27.4296 8.33415C29.2236 8.33415 30.7451 9.35604 31.5399 10.8321H25.0452V14.5564H35.6048C35.6956 14.0114 35.7638 13.4663 35.7638 12.944C35.7638 11.468 35.3323 9.44688 33.8108 7.63017C32.2666 5.81346 29.973 4.65531 27.4296 4.65531C22.8197 4.65531 19.0728 8.37956 19.0728 12.9895Z" fill="url(#paint1_linear_107_101)"/>
<path d="M43.6081 17.6221L51.7378 4.65531H37.2269V8.33415H45.0387L36.909 21.3236H52.4645V17.6221H43.6081Z" fill="url(#paint2_linear_107_101)"/>
<path d="M54.5101 4.65531V21.3236H58.2343V4.65531C56.8481 5.15075 56.0317 5.14396 54.5101 4.65531ZM56.3836 3.72425C57.4057 3.72425 58.2343 2.88428 58.2343 1.86213C58.2343 0.839972 57.4057 0 56.3836 0C55.3614 0 54.5328 0.839972 54.5328 1.86213C54.5328 2.88428 55.3614 3.72425 56.3836 3.72425Z" fill="url(#paint3_linear_107_101)"/>
<path d="M61.6229 16.2368C62.9173 19.2117 65.8241 21.3236 69.2985 21.3236C73.9084 21.3236 77.6327 17.5994 77.6327 12.9895C77.6327 8.37956 73.9084 4.65531 69.2985 4.65531C64.6886 4.65531 60.9644 8.37956 60.9644 12.9895C60.9644 14.1476 61.1915 15.2149 61.6229 16.2368ZM64.6659 12.9895C64.6659 10.4461 66.7551 8.35685 69.2985 8.35685C71.8419 8.35685 73.9311 10.4461 73.9311 12.9895C73.9311 15.5328 71.8419 17.6221 69.2985 17.6221C66.7551 17.6221 64.6659 15.5328 64.6659 12.9895ZM61.0325 21.3236C61.7592 25.1387 65.1882 28 69.185 28C73.1136 28 76.6335 25.2068 77.3601 21.3236H73.5223C72.7957 23.1176 71.1606 24.2985 69.185 24.2985C67.3001 24.2985 65.5516 23.0949 64.8703 21.3236H61.0325ZM66.7551 12.9895C66.7551 14.352 67.9133 15.5101 69.2985 15.5101C70.6837 15.5101 71.8419 14.352 71.8419 12.9895C71.8419 11.6042 70.6837 10.4461 69.2985 10.4461C67.9133 10.4461 66.7551 11.6042 66.7551 12.9895Z" fill="url(#paint4_linear_107_101)"/>
<path d="M84.0922 21.3236V12.0357C84.0922 10.0146 85.7046 8.33415 87.7711 8.33415C89.8376 8.33415 91.4953 10.0146 91.4953 12.0357V21.3236H95.1969V12.0357C95.1969 7.9708 91.8814 4.65531 87.7711 4.65531C83.7062 4.65531 80.368 7.9708 80.368 12.0357V21.3236H84.0922Z" fill="url(#paint5_linear_107_101)"/>
<defs>
<linearGradient id="paint0_linear_107_101" x1="0.228359" y1="-0.286862" x2="90.9102" y2="48.801" gradientUnits="userSpaceOnUse">
<stop stop-color="#BC3CD8"/>
<stop offset="1" stop-color="#C54B8C"/>
</linearGradient>
<linearGradient id="paint1_linear_107_101" x1="0.228359" y1="-0.286862" x2="90.9102" y2="48.801" gradientUnits="userSpaceOnUse">
<stop stop-color="#BC3CD8"/>
<stop offset="1" stop-color="#C54B8C"/>
</linearGradient>
<linearGradient id="paint2_linear_107_101" x1="0.228359" y1="-0.286862" x2="90.9102" y2="48.801" gradientUnits="userSpaceOnUse">
<stop stop-color="#BC3CD8"/>
<stop offset="1" stop-color="#C54B8C"/>
</linearGradient>
<linearGradient id="paint3_linear_107_101" x1="0.228359" y1="-0.286862" x2="90.9102" y2="48.801" gradientUnits="userSpaceOnUse">
<stop stop-color="#BC3CD8"/>
<stop offset="1" stop-color="#C54B8C"/>
</linearGradient>
<linearGradient id="paint4_linear_107_101" x1="0.228359" y1="-0.286862" x2="90.9102" y2="48.801" gradientUnits="userSpaceOnUse">
<stop stop-color="#BC3CD8"/>
<stop offset="1" stop-color="#C54B8C"/>
</linearGradient>
<linearGradient id="paint5_linear_107_101" x1="0.228359" y1="-0.286862" x2="90.9102" y2="48.801" gradientUnits="userSpaceOnUse">
<stop stop-color="#BC3CD8"/>
<stop offset="1" stop-color="#C54B8C"/>
</linearGradient>
</defs>
</svg>
