<svg width="48" height="49" viewBox="0 0 48 49" fill="none" xmlns="http://www.w3.org/2000/svg">
<path d="M38 19.9512V31.35C38.0001 32.5122 37.5554 33.6303 36.7573 34.4751C35.9591 35.3199 34.8679 35.8272 33.7076 35.893L33.45 35.9H14.55C13.3878 35.9 12.2696 35.4554 11.4249 34.6572C10.5801 33.8591 10.0728 32.7679 10.007 31.6076L10 31.35V19.9512L23.5128 27.0296C23.6631 27.1083 23.8303 27.1494 24 27.1494C24.1697 27.1494 24.3369 27.1083 24.4872 27.0296L38 19.9512Z" fill="#E3E4E6" fill-opacity="0.55"/>
<path d="M14.5499 13.5H33.4499C34.5777 13.4999 35.6654 13.9186 36.502 14.675C37.3385 15.4314 37.8644 16.4715 37.9775 17.5936L23.9999 24.9156L10.0223 17.5936C10.1308 16.516 10.6202 15.5125 11.4024 14.7634C12.1845 14.0144 13.2083 13.5689 14.2895 13.507L14.5499 13.5H33.4499H14.5499Z" fill="#E3E4E6" fill-opacity="0.55"/>
</svg>
